<svg width="620" height="909" viewBox="0 0 620 909" fill="none" xmlns="http://www.w3.org/2000/svg">
<path d="M603.79 29.4085L62.7902 68.3506C54.9441 68.9154 48.8672 75.4455 48.8672 83.3119V805.434C48.8672 813.18 54.7646 819.652 62.477 820.369L603.477 870.726C612.272 871.544 619.867 864.623 619.867 855.79V44.3698C619.867 35.6614 612.476 28.7832 603.79 29.4085Z" fill="#C78283"/>
<path d="M603.79 29.4085L62.7902 68.3506C54.9441 68.9154 48.8672 75.4455 48.8672 83.3119V805.434C48.8672 813.18 54.7646 819.652 62.477 820.369L603.477 870.726C612.272 871.544 619.867 864.623 619.867 855.79V44.3698C619.867 35.6614 612.476 28.7832 603.79 29.4085Z" fill="url(#paint0_linear_402_213)"/>
<path d="M615.287 33.7494C615.287 33.7494 618.165 36.4609 619.104 39.6977C619.873 42.3488 619.843 43.1494 619.867 43.1303V856.226C619.867 856.226 619.575 858.596 619.104 860.041C618.207 862.791 615.287 866.39 615.287 866.39V33.7494Z" fill="url(#paint1_linear_402_213)"/>
<path d="M615.287 33.7494C615.287 33.7494 618.165 36.4609 619.104 39.6977C619.873 42.3488 619.843 43.1494 619.867 43.1303V856.226C619.867 856.226 619.575 858.596 619.104 860.041C618.207 862.791 615.287 866.39 615.287 866.39V33.7494Z" fill="url(#paint2_linear_402_213)"/>
<g filter="url(#filter0_d_402_213)">
<path d="M606 46L58 85.4458V804.992L606 856V46Z" fill="white"/>
<path d="M606 46L58 85.4458V804.992L606 856V46Z" stroke="#CBCBCB" stroke-width="1.52709"/>
</g>
<g filter="url(#filter1_d_402_213)">
<path d="M603 44L56 83.5919V805.804L603 857V44Z" fill="white"/>
<path d="M603 44L56 83.5919V805.804L603 857V44Z" stroke="#CBCBCB" stroke-width="1.52709"/>
</g>
<g filter="url(#filter2_d_402_213)">
<path d="M600 43L53 82.738V807.615L600 859V43Z" fill="white"/>
<path d="M600 43L53 82.738V807.615L600 859V43Z" stroke="#CBCBCB" stroke-width="1.52709"/>
</g>
<g filter="url(#filter3_d_402_213)">
<path d="M597 41L50 80.8841V808.426L597 860V41Z" fill="white"/>
<path d="M597 41L50 80.8841V808.426L597 860V41Z" stroke="#CBCBCB" stroke-width="1.52709"/>
</g>
<g filter="url(#filter4_d_402_213)">
<path d="M594 40L47 80.0302V810.237L594 862V40Z" fill="white"/>
<path d="M594 40L47 80.0302V810.237L594 862V40Z" stroke="#CBCBCB" stroke-width="1.52709"/>
</g>
<g filter="url(#filter5_d_402_213)">
<path d="M591 38L47 78.2737V812.922L591 865V38Z" fill="white"/>
<path d="M591 38L47 78.2737V812.922L591 865V38Z" stroke="#CBCBCB" stroke-width="1.52709"/>
</g>
<g filter="url(#filter6_d_402_213)">
<path d="M588 37L44 77.4685V815.67L588 868V37Z" fill="white"/>
<path d="M588 37L44 77.4685V815.67L588 868V37Z" stroke="#CBCBCB" stroke-width="1.52709"/>
</g>
<g filter="url(#filter7_d_402_213)">
<path d="M585 34L41 74.7607V818.292L585 871V34Z" fill="white"/>
<path d="M585 34L41 74.7607V818.292L585 871V34Z" stroke="#CBCBCB" stroke-width="1.52709"/>
</g>
<g filter="url(#filter8_d_402_213)">
<path d="M582 32L38 73.0042V820.977L582 874V32Z" fill="white"/>
<path d="M582 32L38 73.0042V820.977L582 874V32Z" stroke="#CBCBCB" stroke-width="1.52709"/>
</g>
<g filter="url(#filter9_d_402_213)">
<path d="M579 29L35 70.3938V825.474L579 879V29Z" fill="white"/>
<path d="M579 29L35 70.3938V825.474L579 879V29Z" stroke="#CBCBCB" stroke-width="1.52709"/>
</g>
<g filter="url(#filter10_d_402_213)">
<path d="M576 26L32 67.686V828.096L576 882V26Z" fill="white"/>
<path d="M576 26L32 67.686V828.096L576 882V26Z" stroke="#CBCBCB" stroke-width="1.52709"/>
</g>
<g filter="url(#filter11_d_402_213)">
<path d="M573 23L29 65.0269V831.655L573 886V23Z" fill="white"/>
<path d="M573 23L29 65.0269V831.655L573 886V23Z" stroke="#CBCBCB" stroke-width="1.52709"/>
</g>
<g filter="url(#filter12_d_402_213)">
<path d="M570 20L26 62.3191V834.277L570 889V20Z" fill="white"/>
<path d="M570 20L26 62.3191V834.277L570 889V20Z" stroke="#CBCBCB" stroke-width="1.52709"/>
</g>
<path d="M554.841 1.25276L13.8406 43.194C6.02945 43.7996 0 50.3146 0 58.1492V838.187C0 845.892 5.83737 852.343 13.5038 853.112L554.504 907.346C563.335 908.232 571 901.297 571 892.421V16.2079C571 7.46667 563.556 0.577125 554.841 1.25276Z" fill="#C78283"/>
<path d="M554.841 1.25276L13.8406 43.194C6.02945 43.7996 0 50.3146 0 58.1492V838.187C0 845.892 5.83737 852.343 13.5038 853.112L554.504 907.346C563.335 908.232 571 901.297 571 892.421V16.2079C571 7.46667 563.556 0.577125 554.841 1.25276Z" fill="url(#paint3_linear_402_213)"/>
<path d="M560.443 1.94409C560.443 1.94409 566.83 4.50888 569.086 7.9923C570.934 10.8453 571.384 16.3347 571.443 16.3142V892.439C571.443 892.439 570.092 899.216 568.301 901.6C566.004 904.656 560.443 906.944 560.443 906.944V1.94409Z" fill="url(#paint4_linear_402_213)"/>
<path d="M560.443 1.94409C560.443 1.94409 566.83 4.50888 569.086 7.9923C570.934 10.8453 571.384 16.3347 571.443 16.3142V892.439C571.443 892.439 570.092 899.216 568.301 901.6C566.004 904.656 560.443 906.944 560.443 906.944V1.94409Z" fill="url(#paint5_linear_402_213)"/>
<path d="M213.149 794.882L206.587 812.422L203.905 812.175L211.461 792.963L213.19 793.122L213.149 794.882ZM218.65 813.53L212.074 794.783L212.033 793.016L213.762 793.175L221.345 813.778L218.65 813.53ZM218.309 806.13V808.29L207.173 807.266V805.106L218.309 806.13ZM232.468 811.382V800.007L235.001 800.239V815.032L232.591 814.811L232.468 811.382ZM232.945 808.308L233.993 808.377C233.993 809.362 233.889 810.264 233.68 811.083C233.48 811.894 233.154 812.584 232.7 813.153C232.246 813.722 231.652 814.146 230.916 814.425C230.181 814.694 229.287 814.781 228.234 814.684C227.517 814.618 226.859 814.453 226.26 814.188C225.67 813.924 225.162 813.554 224.735 813.077C224.309 812.601 223.978 812.001 223.742 811.277C223.515 810.554 223.401 809.701 223.401 808.717V799.174L225.92 799.405V808.975C225.92 809.641 225.992 810.199 226.138 810.65C226.292 811.092 226.496 811.453 226.75 811.731C227.014 812.002 227.304 812.201 227.622 812.331C227.948 812.461 228.284 812.542 228.629 812.574C229.7 812.672 230.549 812.545 231.175 812.193C231.801 811.831 232.251 811.312 232.523 810.635C232.804 809.95 232.945 809.174 232.945 808.308ZM245.007 801.159V803.1L237.043 802.369V800.427L245.007 801.159ZM239.739 797.079L242.257 797.311V812.035C242.257 812.536 242.334 812.922 242.489 813.191C242.643 813.461 242.843 813.648 243.088 813.752C243.333 813.857 243.596 813.922 243.877 813.948C244.086 813.967 244.304 813.969 244.531 813.953C244.767 813.929 244.944 813.909 245.062 813.892L245.076 815.958C244.876 816.004 244.613 816.039 244.286 816.063C243.968 816.098 243.582 816.094 243.129 816.053C242.511 815.996 241.944 815.821 241.427 815.527C240.909 815.234 240.496 814.785 240.188 814.183C239.888 813.572 239.739 812.774 239.739 811.79V797.079ZM250.48 795.455V816.455L247.962 816.223V795.223L250.48 795.455ZM249.881 808.443L248.833 808.305C248.842 807.295 248.992 806.374 249.282 805.544C249.573 804.705 249.981 803.99 250.508 803.401C251.034 802.811 251.66 802.376 252.387 802.097C253.122 801.809 253.934 801.706 254.824 801.787C255.55 801.854 256.203 802.015 256.784 802.268C257.365 802.513 257.86 802.869 258.268 803.334C258.685 803.801 259.003 804.386 259.221 805.09C259.439 805.784 259.548 806.619 259.548 807.595V817.288L257.015 817.055V807.335C257.015 806.56 256.902 805.93 256.675 805.444C256.448 804.949 256.117 804.577 255.681 804.327C255.246 804.068 254.71 803.91 254.075 803.851C253.448 803.794 252.877 803.874 252.359 804.09C251.851 804.308 251.411 804.632 251.039 805.063C250.676 805.494 250.39 806.001 250.181 806.584C249.981 807.158 249.881 807.777 249.881 808.443ZM262.652 810.341V810.026C262.652 808.96 262.806 807.985 263.115 807.102C263.423 806.21 263.868 805.453 264.449 804.832C265.03 804.202 265.733 803.738 266.559 803.44C267.385 803.133 268.311 803.027 269.337 803.121C270.371 803.216 271.302 803.493 272.128 803.952C272.963 804.402 273.671 804.996 274.251 805.733C274.841 806.461 275.291 807.3 275.599 808.249C275.908 809.189 276.062 810.192 276.062 811.259V811.573C276.062 812.639 275.908 813.614 275.599 814.497C275.291 815.38 274.841 816.137 274.251 816.766C273.671 817.387 272.967 817.851 272.141 818.158C271.324 818.457 270.399 818.558 269.364 818.463C268.329 818.368 267.399 818.096 266.573 817.646C265.747 817.188 265.039 816.594 264.449 815.865C263.868 815.128 263.423 814.29 263.115 813.35C262.806 812.41 262.652 811.407 262.652 810.341ZM265.171 810.258V810.572C265.171 811.31 265.257 812.016 265.429 812.688C265.602 813.351 265.86 813.949 266.205 814.482C266.559 815.016 266.999 815.453 267.526 815.793C268.052 816.123 268.665 816.321 269.364 816.385C270.054 816.449 270.657 816.363 271.175 816.128C271.701 815.885 272.137 815.528 272.482 815.058C272.826 814.589 273.085 814.038 273.258 813.407C273.439 812.768 273.53 812.079 273.53 811.34V811.026C273.53 810.297 273.439 809.6 273.258 808.936C273.085 808.264 272.822 807.661 272.468 807.128C272.123 806.585 271.687 806.144 271.161 805.804C270.644 805.465 270.035 805.263 269.337 805.199C268.647 805.136 268.039 805.226 267.512 805.469C266.995 805.713 266.559 806.074 266.205 806.552C265.86 807.022 265.602 807.577 265.429 808.217C265.257 808.848 265.171 809.529 265.171 810.258ZM281.739 806.858V819.327L279.221 819.096V804.303L281.671 804.528L281.739 806.858ZM286.341 804.875L286.328 807.225C286.119 807.16 285.919 807.115 285.728 807.088C285.547 807.053 285.338 807.025 285.102 807.003C284.521 806.95 284.009 806.994 283.564 807.135C283.119 807.277 282.742 807.497 282.434 807.797C282.125 808.097 281.88 808.466 281.699 808.905C281.526 809.336 281.413 809.818 281.358 810.351L280.65 810.696C280.65 809.803 280.736 808.972 280.909 808.204C281.09 807.437 281.367 806.769 281.739 806.202C282.112 805.626 282.584 805.195 283.155 804.91C283.736 804.617 284.426 804.508 285.225 804.581C285.406 804.598 285.615 804.64 285.851 804.707C286.087 804.765 286.25 804.821 286.341 804.875ZM288.56 818.614C288.56 818.186 288.692 817.838 288.955 817.57C289.227 817.294 289.618 817.18 290.126 817.227C290.634 817.273 291.02 817.459 291.283 817.784C291.555 818.101 291.692 818.473 291.692 818.902C291.692 819.321 291.555 819.664 291.283 819.931C291.02 820.198 290.634 820.308 290.126 820.262C289.618 820.215 289.227 820.033 288.955 819.717C288.692 819.401 288.56 819.033 288.56 818.614ZM288.574 806.543C288.574 806.115 288.706 805.767 288.969 805.499C289.241 805.223 289.631 805.109 290.14 805.156C290.648 805.202 291.034 805.388 291.297 805.713C291.569 806.03 291.705 806.402 291.705 806.831C291.705 807.25 291.569 807.593 291.297 807.86C291.034 808.127 290.648 808.237 290.14 808.191C289.631 808.144 289.241 807.962 288.969 807.646C288.706 807.33 288.574 806.962 288.574 806.543ZM303.632 801.432L308.778 811.899L313.938 802.379L316.919 802.653L310.085 814.494V821.932L307.457 821.69V814.253L300.623 801.156L303.632 801.432ZM317.518 815.382V815.068C317.518 814.001 317.673 813.027 317.981 812.144C318.29 811.251 318.735 810.495 319.315 809.874C319.896 809.243 320.6 808.779 321.426 808.482C322.252 808.175 323.177 808.068 324.203 808.163C325.238 808.258 326.168 808.535 326.994 808.993C327.829 809.444 328.537 810.037 329.118 810.774C329.708 811.503 330.157 812.342 330.466 813.291C330.774 814.231 330.929 815.234 330.929 816.3V816.615C330.929 817.681 330.774 818.656 330.466 819.539C330.157 820.422 329.708 821.178 329.118 821.808C328.537 822.429 327.834 822.893 327.008 823.2C326.191 823.498 325.265 823.6 324.23 823.505C323.196 823.41 322.265 823.137 321.439 822.688C320.613 822.229 319.905 821.636 319.315 820.907C318.735 820.17 318.29 819.331 317.981 818.392C317.673 817.452 317.518 816.449 317.518 815.382ZM320.037 815.299V815.614C320.037 816.352 320.123 817.057 320.296 817.729C320.468 818.392 320.727 818.99 321.072 819.523C321.426 820.057 321.866 820.494 322.392 820.834C322.919 821.165 323.531 821.363 324.23 821.427C324.92 821.49 325.524 821.404 326.041 821.169C326.567 820.926 327.003 820.57 327.348 820.1C327.693 819.63 327.952 819.08 328.124 818.449C328.306 817.809 328.396 817.12 328.396 816.382V816.067C328.396 815.338 328.306 814.642 328.124 813.978C327.952 813.306 327.688 812.703 327.334 812.169C326.99 811.627 326.554 811.186 326.027 810.846C325.51 810.507 324.902 810.305 324.203 810.241C323.513 810.177 322.905 810.267 322.379 810.511C321.861 810.755 321.426 811.116 321.072 811.594C320.727 812.063 320.468 812.618 320.296 813.259C320.123 813.89 320.037 814.57 320.037 815.299ZM343.1 821.547V810.172L345.632 810.405V825.198L343.223 824.977L343.1 821.547ZM343.577 818.474L344.625 818.543C344.625 819.527 344.521 820.429 344.312 821.249C344.112 822.06 343.785 822.75 343.332 823.319C342.878 823.888 342.283 824.312 341.548 824.59C340.813 824.86 339.919 824.946 338.866 824.85C338.149 824.784 337.491 824.619 336.892 824.354C336.302 824.09 335.794 823.72 335.367 823.243C334.94 822.766 334.609 822.166 334.373 821.443C334.146 820.72 334.033 819.867 334.033 818.882V809.339L336.551 809.571V819.141C336.551 819.806 336.624 820.364 336.769 820.815C336.924 821.258 337.128 821.618 337.382 821.897C337.645 822.167 337.936 822.367 338.253 822.497C338.58 822.627 338.916 822.708 339.261 822.74C340.332 822.838 341.18 822.711 341.807 822.358C342.433 821.997 342.882 821.477 343.155 820.8C343.436 820.115 343.577 819.34 343.577 818.474Z" fill="white" fill-opacity="0.7"/>
<path d="M172.857 166.527L167.813 154.666L162.399 154.595L170.326 171.222L170.344 180.292L175.265 180.357L175.283 171.498L183.333 154.869L177.902 154.798L172.857 166.527ZM185.249 170.802V171.171C185.249 172.566 185.448 173.857 185.846 175.046C186.245 176.223 186.831 177.251 187.604 178.128C188.366 179.005 189.303 179.697 190.416 180.204C191.541 180.699 192.818 180.956 194.248 180.975C195.666 180.993 196.931 180.769 198.044 180.304C199.158 179.826 200.095 179.159 200.857 178.301C201.618 177.444 202.198 176.432 202.597 175.265C202.995 174.087 203.194 172.801 203.194 171.406V171.037C203.194 169.654 202.995 168.374 202.597 167.197C202.198 166.008 201.618 164.975 200.857 164.098C200.083 163.221 199.14 162.529 198.027 162.022C196.914 161.515 195.642 161.253 194.213 161.234C192.783 161.215 191.512 161.445 190.399 161.922C189.297 162.4 188.366 163.067 187.604 163.925C186.831 164.782 186.245 165.799 185.846 166.978C185.448 168.145 185.249 169.419 185.249 170.802ZM190.135 171.235V170.866C190.135 170.093 190.211 169.361 190.363 168.672C190.516 167.982 190.756 167.376 191.084 166.853C191.412 166.33 191.834 165.92 192.35 165.622C192.865 165.324 193.486 165.179 194.213 165.189C194.951 165.199 195.578 165.359 196.093 165.671C196.609 165.982 197.031 166.404 197.359 166.935C197.675 167.467 197.91 168.079 198.062 168.773C198.214 169.466 198.291 170.199 198.291 170.973V171.342C198.291 172.139 198.214 172.888 198.062 173.589C197.91 174.278 197.675 174.879 197.359 175.39C197.031 175.913 196.609 176.324 196.093 176.622C195.578 176.92 194.963 177.064 194.248 177.055C193.51 177.045 192.877 176.884 192.35 176.573C191.834 176.261 191.412 175.84 191.084 175.308C190.756 174.788 190.516 174.182 190.363 173.488C190.211 172.783 190.135 172.032 190.135 171.235ZM219.945 180.942L224.374 181V161.98L219.47 161.916V175.258C219.318 175.561 219.136 175.834 218.925 176.077C218.715 176.32 218.474 176.528 218.205 176.7C217.888 176.895 217.519 177.043 217.098 177.143C216.687 177.243 216.225 177.29 215.709 177.283C215.135 177.275 214.649 177.199 214.25 177.053C213.852 176.907 213.529 176.668 213.283 176.337C213.037 176.017 212.856 175.593 212.739 175.064C212.633 174.536 212.58 173.884 212.58 173.111V161.826L207.694 161.762V173.012C207.694 174.453 207.852 175.692 208.169 176.727C208.497 177.751 208.954 178.595 209.54 179.259C210.125 179.934 210.829 180.43 211.649 180.745C212.469 181.061 213.371 181.225 214.356 181.238C215.434 181.252 216.424 180.995 217.326 180.468C218.24 179.941 219.019 179.207 219.664 178.266L219.945 180.942ZM242.812 161.87C241.535 161.853 240.357 162.148 239.279 162.755C238.201 163.351 237.275 164.182 236.502 165.25L236.467 164.828L236.274 162.136L231.721 162.076V181.096L236.608 181.16V169.734C236.83 169.198 237.111 168.733 237.451 168.339C237.791 167.945 238.201 167.622 238.682 167.371C239.08 167.153 239.531 166.995 240.035 166.896C240.551 166.786 241.125 166.735 241.758 166.743C242.367 166.751 243.005 166.8 243.673 166.891C244.353 166.97 245.015 167.09 245.66 167.251L246.38 162.391C245.993 162.269 245.484 162.157 244.851 162.055C244.23 161.941 243.55 161.88 242.812 161.87ZM285.506 175.12C285.506 175.577 285.412 175.998 285.224 176.382C285.037 176.755 284.767 177.074 284.416 177.339C284.064 177.603 283.631 177.809 283.115 177.954C282.611 178.1 282.031 178.169 281.375 178.16C280.637 178.15 279.957 178.059 279.336 177.887C278.727 177.715 278.206 177.451 277.772 177.093C277.327 176.736 276.981 176.28 276.735 175.726C276.489 175.172 276.354 174.508 276.331 173.735L271.48 173.671C271.48 174.995 271.732 176.153 272.235 177.144C272.751 178.135 273.448 179 274.327 179.738C275.253 180.488 276.337 181.065 277.579 181.468C278.832 181.859 280.098 182.063 281.375 182.08C282.676 182.097 283.877 181.96 284.978 181.67C286.08 181.368 287.029 180.918 287.826 180.319C288.623 179.731 289.244 179.007 289.689 178.146C290.146 177.273 290.374 176.274 290.374 175.149C290.374 173.848 290.076 172.696 289.478 171.692C288.88 170.688 288.078 169.804 287.07 169.041C286.402 168.575 285.67 168.162 284.873 167.8C284.076 167.438 283.238 167.128 282.36 166.87C281.539 166.637 280.801 166.387 280.145 166.12C279.5 165.854 278.95 165.56 278.493 165.238C278.036 164.927 277.684 164.577 277.438 164.187C277.204 163.797 277.087 163.362 277.087 162.881C277.087 162.424 277.174 162.003 277.35 161.619C277.538 161.223 277.807 160.881 278.159 160.593C278.51 160.316 278.938 160.105 279.442 159.959C279.957 159.802 280.543 159.727 281.199 159.736C281.914 159.745 282.535 159.853 283.063 160.059C283.602 160.254 284.053 160.523 284.416 160.868C284.767 161.224 285.031 161.643 285.207 162.126C285.394 162.609 285.5 163.138 285.523 163.712L290.339 163.775C290.339 162.627 290.117 161.569 289.671 160.603C289.226 159.636 288.605 158.796 287.808 158.082C287.011 157.38 286.056 156.829 284.943 156.427C283.842 156.026 282.623 155.817 281.287 155.8C279.998 155.783 278.803 155.937 277.702 156.262C276.6 156.576 275.645 157.038 274.837 157.649C274.028 158.259 273.395 159.001 272.938 159.874C272.481 160.747 272.253 161.722 272.253 162.8C272.253 163.738 272.423 164.607 272.763 165.409C273.114 166.21 273.63 166.943 274.309 167.609C274.989 168.274 275.862 168.889 276.928 169.453C278.006 170.018 279.254 170.503 280.672 170.909C281.586 171.167 282.348 171.446 282.957 171.747C283.578 172.037 284.082 172.354 284.469 172.699C284.844 173.055 285.107 173.434 285.26 173.834C285.424 174.235 285.506 174.663 285.506 175.12ZM302.977 158.351L298.091 158.287V162.945L293.749 162.888V166.492L298.091 166.549V175.197C298.091 176.451 298.255 177.531 298.583 178.438C298.911 179.333 299.38 180.072 299.989 180.654C300.586 181.247 301.307 181.69 302.151 181.983C303.006 182.264 303.955 182.411 304.998 182.424C305.537 182.431 306.082 182.409 306.633 182.358C307.195 182.318 307.734 182.255 308.25 182.168C308.765 182.081 309.252 181.97 309.709 181.836C310.166 181.689 310.564 181.519 310.904 181.324L310.429 177.96C310.207 178.016 309.937 178.071 309.621 178.125C309.316 178.18 308.988 178.229 308.637 178.271C308.273 178.325 307.892 178.367 307.494 178.396C307.107 178.427 306.727 178.439 306.352 178.434C305.836 178.428 305.367 178.363 304.945 178.24C304.535 178.118 304.184 177.914 303.891 177.629C303.598 177.355 303.369 176.989 303.205 176.53C303.053 176.059 302.977 175.478 302.977 174.787V166.613L310.078 166.706V163.102L302.977 163.009V158.351ZM314.964 172.5V172.869C314.964 174.264 315.163 175.555 315.562 176.744C315.96 177.921 316.546 178.949 317.319 179.826C318.081 180.703 319.018 181.395 320.132 181.902C321.257 182.397 322.534 182.654 323.963 182.673C325.381 182.691 326.647 182.468 327.76 182.002C328.873 181.524 329.811 180.857 330.572 179.999C331.334 179.142 331.914 178.13 332.312 176.964C332.711 175.785 332.91 174.499 332.91 173.104V172.735C332.91 171.352 332.711 170.072 332.312 168.895C331.914 167.706 331.334 166.673 330.572 165.796C329.799 164.919 328.856 164.227 327.742 163.72C326.629 163.213 325.358 162.951 323.928 162.932C322.499 162.913 321.227 163.143 320.114 163.62C319.013 164.098 318.081 164.766 317.319 165.623C316.546 166.48 315.96 167.498 315.562 168.676C315.163 169.843 314.964 171.117 314.964 172.5ZM319.85 172.933V172.564C319.85 171.791 319.927 171.059 320.079 170.37C320.231 169.68 320.471 169.074 320.8 168.551C321.128 168.028 321.55 167.618 322.065 167.32C322.581 167.022 323.202 166.878 323.928 166.887C324.666 166.897 325.293 167.057 325.809 167.369C326.324 167.68 326.746 168.102 327.074 168.633C327.391 169.165 327.625 169.777 327.777 170.471C327.93 171.164 328.006 171.897 328.006 172.671V173.04C328.006 173.837 327.93 174.586 327.777 175.287C327.625 175.976 327.391 176.577 327.074 177.088C326.746 177.611 326.324 178.022 325.809 178.32C325.293 178.618 324.678 178.762 323.963 178.753C323.225 178.743 322.592 178.582 322.065 178.271C321.55 177.959 321.128 177.538 320.8 177.006C320.471 176.486 320.231 175.88 320.079 175.186C319.927 174.481 319.85 173.73 319.85 172.933ZM350.908 163.285C349.631 163.268 348.453 163.564 347.375 164.171C346.297 164.766 345.372 165.597 344.598 166.665L344.563 166.243L344.37 163.551L339.817 163.491V182.511L344.704 182.575V171.149C344.926 170.613 345.208 170.148 345.547 169.754C345.887 169.36 346.297 169.037 346.778 168.786C347.176 168.568 347.627 168.41 348.131 168.311C348.647 168.201 349.221 168.15 349.854 168.158C350.463 168.166 351.102 168.215 351.77 168.306C352.449 168.385 353.111 168.505 353.756 168.666L354.476 163.806C354.09 163.684 353.58 163.572 352.947 163.47C352.326 163.356 351.647 163.295 350.908 163.285ZM360.171 163.758V167.748L365.585 167.819V178.876L360.171 178.805V182.777L375.674 182.98V179.008L370.524 178.94V163.893L360.171 163.758ZM365.233 158.955C365.233 159.33 365.298 159.682 365.427 160.012C365.567 160.331 365.761 160.603 366.007 160.828C366.253 161.066 366.546 161.252 366.885 161.385C367.237 161.518 367.624 161.588 368.046 161.593C368.913 161.605 369.598 161.374 370.102 160.9C370.618 160.414 370.875 159.791 370.875 159.029C370.875 158.267 370.618 157.643 370.102 157.156C369.598 156.657 368.913 156.402 368.046 156.39C367.624 156.385 367.237 156.444 366.885 156.568C366.546 156.693 366.253 156.865 366.007 157.084C365.761 157.315 365.567 157.594 365.427 157.92C365.298 158.235 365.233 158.58 365.233 158.955ZM389.717 183.516C391.557 183.54 393.151 183.203 394.498 182.506C395.846 181.809 396.83 181.025 397.451 180.154L395.008 177.485C394.446 178.205 393.713 178.74 392.811 179.091C391.909 179.443 390.977 179.612 390.016 179.6C389.337 179.591 388.71 179.477 388.136 179.259C387.561 179.04 387.052 178.735 386.606 178.342C386.173 177.962 385.827 177.541 385.569 177.081C385.312 176.609 385.101 175.991 384.937 175.227V175.174L397.838 175.343V173.269C397.838 171.874 397.645 170.6 397.258 169.447C396.871 168.281 396.309 167.284 395.57 166.454C394.821 165.624 393.907 164.979 392.829 164.519C391.762 164.048 390.544 163.804 389.173 163.786C387.849 163.769 386.624 163.993 385.499 164.459C384.374 164.924 383.402 165.585 382.581 166.442C381.761 167.298 381.123 168.327 380.666 169.528C380.209 170.718 379.98 172.039 379.98 173.492V174.195C379.98 175.472 380.209 176.676 380.666 177.807C381.134 178.927 381.796 179.902 382.652 180.734C383.507 181.577 384.532 182.247 385.728 182.743C386.923 183.239 388.253 183.497 389.717 183.516ZM389.137 167.741C389.758 167.749 390.303 167.856 390.772 168.061C391.253 168.255 391.657 168.518 391.985 168.85C392.313 169.194 392.571 169.596 392.758 170.056C392.946 170.515 393.039 171.003 393.039 171.518V171.905L385.025 171.8C385.142 171.181 385.317 170.62 385.552 170.119C385.786 169.619 386.079 169.189 386.431 168.83C386.77 168.471 387.169 168.201 387.626 168.02C388.083 167.826 388.587 167.733 389.137 167.741ZM414.377 178.266C414.377 178.559 414.301 178.828 414.149 179.072C414.008 179.316 413.792 179.53 413.499 179.714C413.194 179.897 412.801 180.045 412.321 180.155C411.852 180.255 411.302 180.3 410.669 180.292C410.142 180.285 409.626 180.226 409.122 180.114C408.63 180.002 408.191 179.826 407.804 179.587C407.417 179.359 407.101 179.062 406.855 178.695C406.609 178.317 406.468 177.87 406.433 177.354L401.775 177.293C401.775 178.066 401.963 178.842 402.337 179.62C402.724 180.387 403.287 181.074 404.025 181.682C404.763 182.301 405.677 182.805 406.767 183.194C407.868 183.584 409.134 183.788 410.563 183.806C411.864 183.823 413.042 183.698 414.096 183.431C415.151 183.151 416.053 182.759 416.803 182.253C417.541 181.747 418.11 181.145 418.508 180.447C418.918 179.738 419.123 178.961 419.123 178.118C419.123 177.203 418.918 176.416 418.508 175.754C418.11 175.081 417.553 174.505 416.838 174.027C416.123 173.561 415.274 173.175 414.29 172.869C413.305 172.563 412.239 172.309 411.091 172.106C410.294 171.979 409.638 171.835 409.122 171.676C408.606 171.505 408.202 171.318 407.909 171.115C407.605 170.924 407.394 170.71 407.277 170.474C407.159 170.227 407.101 169.962 407.101 169.681C407.101 169.4 407.165 169.137 407.294 168.892C407.435 168.636 407.634 168.416 407.892 168.232C408.173 168.025 408.536 167.866 408.981 167.754C409.427 167.643 409.948 167.591 410.546 167.599C411.249 167.608 411.846 167.704 412.339 167.886C412.842 168.069 413.241 168.308 413.534 168.605C413.745 168.83 413.903 169.084 414.008 169.367C414.114 169.638 414.167 169.932 414.167 170.248L419.053 170.312C419.053 169.433 418.86 168.616 418.473 167.861C418.086 167.106 417.53 166.448 416.803 165.888C416.065 165.339 415.168 164.906 414.114 164.587C413.059 164.257 411.87 164.083 410.546 164.066C409.28 164.049 408.144 164.193 407.136 164.496C406.128 164.799 405.273 165.216 404.57 165.745C403.867 166.275 403.328 166.895 402.953 167.605C402.578 168.315 402.39 169.063 402.39 169.848C402.39 170.656 402.572 171.374 402.935 171.999C403.31 172.625 403.826 173.177 404.482 173.654C405.138 174.143 405.923 174.564 406.837 174.916C407.763 175.256 408.782 175.545 409.895 175.782C410.774 175.957 411.501 176.131 412.075 176.303C412.649 176.474 413.112 176.656 413.463 176.848C413.803 177.052 414.038 177.266 414.167 177.49C414.307 177.715 414.377 177.973 414.377 178.266ZM259.334 214.659L254.29 202.798L248.876 202.727L256.803 219.354L256.821 228.425L261.742 228.489L261.76 219.63L269.81 203.001L264.379 202.93L259.334 214.659ZM271.726 218.934V219.303C271.726 220.698 271.925 221.989 272.323 223.178C272.722 224.355 273.308 225.383 274.081 226.26C274.843 227.137 275.78 227.829 276.893 228.336C278.018 228.831 279.295 229.088 280.725 229.107C282.143 229.125 283.408 228.901 284.521 228.436C285.635 227.958 286.572 227.291 287.334 226.433C288.095 225.576 288.675 224.564 289.074 223.398C289.472 222.219 289.671 220.933 289.671 219.538V219.169C289.671 217.786 289.472 216.506 289.074 215.329C288.675 214.14 288.095 213.107 287.334 212.23C286.56 211.353 285.617 210.661 284.504 210.154C283.391 209.647 282.119 209.385 280.69 209.366C279.26 209.347 277.989 209.577 276.876 210.054C275.774 210.532 274.843 211.2 274.081 212.057C273.308 212.914 272.722 213.932 272.323 215.11C271.925 216.277 271.726 217.551 271.726 218.934ZM276.612 219.367V218.998C276.612 218.225 276.688 217.493 276.84 216.804C276.993 216.114 277.233 215.508 277.561 214.985C277.889 214.462 278.311 214.052 278.827 213.754C279.342 213.456 279.963 213.311 280.69 213.321C281.428 213.331 282.055 213.491 282.57 213.803C283.086 214.114 283.508 214.536 283.836 215.067C284.152 215.599 284.387 216.211 284.539 216.905C284.691 217.598 284.767 218.331 284.767 219.105V219.474C284.767 220.271 284.691 221.02 284.539 221.721C284.387 222.41 284.152 223.011 283.836 223.522C283.508 224.045 283.086 224.456 282.57 224.754C282.055 225.052 281.44 225.196 280.725 225.187C279.987 225.177 279.354 225.016 278.827 224.705C278.311 224.393 277.889 223.972 277.561 223.44C277.233 222.92 276.993 222.314 276.84 221.62C276.688 220.915 276.612 220.164 276.612 219.367ZM306.422 229.074L310.851 229.132V210.112L305.947 210.048V223.39C305.795 223.693 305.613 223.966 305.402 224.209C305.192 224.452 304.951 224.66 304.682 224.832C304.365 225.027 303.996 225.175 303.574 225.275C303.164 225.375 302.702 225.422 302.186 225.415C301.612 225.407 301.125 225.331 300.727 225.185C300.329 225.039 300.006 224.8 299.76 224.469C299.514 224.149 299.333 223.725 299.215 223.196C299.11 222.668 299.057 222.017 299.057 221.243V209.958L294.171 209.894V221.144C294.171 222.585 294.329 223.824 294.646 224.859C294.974 225.883 295.431 226.727 296.017 227.391C296.602 228.066 297.305 228.562 298.126 228.877C298.946 229.193 299.848 229.357 300.833 229.37C301.911 229.384 302.901 229.127 303.803 228.6C304.717 228.073 305.496 227.339 306.141 226.398L306.422 229.074ZM329.289 210.002C328.012 209.985 326.834 210.281 325.756 210.888C324.678 211.483 323.752 212.314 322.979 213.382L322.944 212.96L322.751 210.268L318.198 210.208V229.228L323.085 229.292V217.866C323.307 217.33 323.588 216.865 323.928 216.471C324.268 216.077 324.678 215.754 325.159 215.503C325.557 215.285 326.008 215.127 326.512 215.028C327.028 214.918 327.602 214.867 328.234 214.875C328.844 214.883 329.482 214.932 330.15 215.023C330.83 215.102 331.492 215.222 332.136 215.383L332.857 210.523C332.47 210.401 331.961 210.289 331.328 210.187C330.707 210.073 330.027 210.012 329.289 210.002ZM198.326 269.315L199.82 274.678L205.022 274.746L196.797 249.045L192.314 248.986L183.93 274.47L189.133 274.538L190.645 269.214L198.326 269.315ZM191.857 265.029L194.547 255.643L197.166 265.099L191.857 265.029ZM207.026 265.122V265.491C207.026 266.874 207.196 268.16 207.536 269.348C207.876 270.524 208.368 271.544 209.012 272.408C209.645 273.272 210.418 273.956 211.332 274.46C212.258 274.953 213.301 275.206 214.461 275.222C215.527 275.236 216.465 275.043 217.273 274.643C218.082 274.244 218.785 273.679 219.382 272.948L219.629 274.938L224.04 274.995V247.995L219.136 247.931V257.617C218.551 256.953 217.877 256.44 217.115 256.079C216.365 255.705 215.492 255.512 214.496 255.499C213.313 255.484 212.258 255.704 211.332 256.161C210.418 256.618 209.639 257.27 208.995 258.117C208.35 258.964 207.858 259.983 207.518 261.174C207.19 262.365 207.026 263.681 207.026 265.122ZM211.912 265.555V265.186C211.912 264.389 211.983 263.646 212.123 262.957C212.264 262.255 212.487 261.643 212.791 261.12C213.096 260.608 213.488 260.209 213.969 259.922C214.461 259.624 215.053 259.479 215.744 259.488C216.576 259.499 217.267 259.69 217.818 260.06C218.369 260.419 218.808 260.923 219.136 261.572V269.271C218.808 269.9 218.363 270.392 217.801 270.748C217.25 271.104 216.553 271.276 215.709 271.265C215.018 271.256 214.432 271.102 213.951 270.803C213.471 270.504 213.078 270.094 212.774 269.574C212.469 269.067 212.246 268.472 212.106 267.79C211.977 267.097 211.912 266.352 211.912 265.555ZM235.201 275.142L239.789 275.202L247.013 256.277L241.916 256.21L237.75 269.567L237.486 270.9L237.223 269.561L233.04 256.094L227.942 256.027L235.201 275.142ZM260.002 275.818C261.842 275.842 263.435 275.505 264.783 274.808C266.13 274.111 267.115 273.327 267.736 272.456L265.293 269.787C264.73 270.507 263.998 271.042 263.096 271.393C262.193 271.745 261.262 271.914 260.301 271.902C259.621 271.893 258.994 271.779 258.42 271.561C257.846 271.342 257.336 271.037 256.891 270.644C256.457 270.264 256.112 269.843 255.854 269.383C255.596 268.91 255.385 268.292 255.221 267.529V267.476L268.122 267.645V265.571C268.122 264.176 267.929 262.902 267.542 261.748C267.156 260.583 266.593 259.586 265.855 258.756C265.105 257.926 264.191 257.281 263.113 256.821C262.047 256.35 260.828 256.106 259.457 256.088C258.133 256.071 256.909 256.295 255.784 256.761C254.659 257.226 253.686 257.887 252.866 258.744C252.046 259.6 251.407 260.629 250.95 261.83C250.493 263.019 250.265 264.341 250.265 265.794V266.497C250.265 267.774 250.493 268.978 250.95 270.109C251.419 271.229 252.081 272.204 252.936 273.036C253.792 273.879 254.817 274.549 256.012 275.045C257.207 275.541 258.537 275.799 260.002 275.818ZM259.422 260.043C260.043 260.051 260.588 260.157 261.057 260.363C261.537 260.557 261.941 260.82 262.269 261.152C262.598 261.496 262.855 261.898 263.043 262.358C263.23 262.817 263.324 263.305 263.324 263.82V264.207L255.309 264.102C255.426 263.482 255.602 262.922 255.836 262.421C256.071 261.921 256.364 261.491 256.715 261.132C257.055 260.773 257.453 260.503 257.91 260.322C258.367 260.128 258.871 260.035 259.422 260.043ZM272.394 275.628L277.297 275.693V262.175C277.461 261.919 277.643 261.687 277.842 261.479C278.042 261.271 278.264 261.092 278.51 260.943C278.815 260.736 279.161 260.582 279.547 260.482C279.946 260.382 280.379 260.335 280.848 260.341C281.41 260.348 281.914 260.413 282.36 260.536C282.805 260.648 283.186 260.846 283.502 261.131C283.818 261.417 284.059 261.806 284.223 262.301C284.398 262.784 284.486 263.4 284.486 264.15V275.787L289.373 275.851V264.144C289.373 262.761 289.209 261.587 288.88 260.622C288.564 259.645 288.119 258.842 287.545 258.213C286.959 257.596 286.267 257.142 285.471 256.85C284.674 256.559 283.795 256.407 282.834 256.394C282.084 256.384 281.375 256.48 280.707 256.683C280.039 256.885 279.424 257.181 278.862 257.572C278.534 257.803 278.223 258.062 277.93 258.351C277.637 258.64 277.368 258.959 277.122 259.307L276.823 256.667L272.394 256.609V275.628ZM302.977 252.351L298.091 252.287V256.945L293.749 256.888V260.492L298.091 260.549V269.197C298.091 270.451 298.255 271.531 298.583 272.438C298.911 273.333 299.38 274.072 299.989 274.654C300.586 275.247 301.307 275.69 302.151 275.983C303.006 276.264 303.955 276.411 304.998 276.424C305.537 276.431 306.082 276.409 306.633 276.358C307.195 276.318 307.734 276.255 308.25 276.168C308.765 276.081 309.252 275.97 309.709 275.836C310.166 275.689 310.564 275.519 310.904 275.324L310.429 271.96C310.207 272.016 309.937 272.071 309.621 272.125C309.316 272.18 308.988 272.229 308.637 272.271C308.273 272.325 307.892 272.367 307.494 272.396C307.107 272.427 306.727 272.439 306.352 272.434C305.836 272.428 305.367 272.363 304.945 272.24C304.535 272.118 304.184 271.914 303.891 271.629C303.598 271.355 303.369 270.989 303.205 270.53C303.053 270.059 302.977 269.478 302.977 268.787V260.613L310.078 260.706V257.102L302.977 257.009V252.351ZM328.041 276.357L332.47 276.415V257.395L327.567 257.331V270.673C327.414 270.976 327.233 271.249 327.022 271.492C326.811 271.735 326.571 271.943 326.301 272.115C325.985 272.31 325.616 272.458 325.194 272.558C324.784 272.658 324.321 272.705 323.805 272.698C323.231 272.69 322.745 272.614 322.346 272.468C321.948 272.322 321.626 272.083 321.38 271.752C321.134 271.432 320.952 271.008 320.835 270.479C320.729 269.951 320.677 269.3 320.677 268.526V257.241L315.79 257.177V268.427C315.79 269.868 315.948 271.107 316.265 272.142C316.593 273.166 317.05 274.01 317.636 274.674C318.222 275.349 318.925 275.845 319.745 276.16C320.565 276.476 321.467 276.64 322.452 276.653C323.53 276.667 324.52 276.41 325.422 275.883C326.336 275.356 327.115 274.622 327.76 273.681L328.041 276.357ZM350.908 257.285C349.631 257.268 348.453 257.564 347.375 258.171C346.297 258.766 345.372 259.597 344.598 260.665L344.563 260.243L344.37 257.551L339.817 257.491V276.511L344.704 276.575V265.149C344.926 264.613 345.208 264.148 345.547 263.754C345.887 263.36 346.297 263.037 346.778 262.786C347.176 262.568 347.627 262.41 348.131 262.311C348.647 262.201 349.221 262.15 349.854 262.158C350.463 262.166 351.102 262.215 351.77 262.306C352.449 262.385 353.111 262.505 353.756 262.666L354.476 257.806C354.09 257.684 353.58 257.572 352.947 257.47C352.326 257.356 351.647 257.295 350.908 257.285ZM368.098 277.233C369.938 277.257 371.532 276.92 372.879 276.223C374.227 275.526 375.211 274.742 375.832 273.871L373.389 271.202C372.826 271.922 372.094 272.457 371.192 272.808C370.289 273.16 369.358 273.329 368.397 273.317C367.717 273.308 367.091 273.194 366.516 272.976C365.942 272.757 365.432 272.452 364.987 272.059C364.554 271.679 364.208 271.258 363.95 270.798C363.692 270.326 363.481 269.708 363.317 268.944V268.891L376.219 269.06V266.986C376.219 265.591 376.025 264.317 375.639 263.164C375.252 261.998 374.689 261.001 373.951 260.171C373.201 259.341 372.287 258.696 371.209 258.236C370.143 257.765 368.924 257.521 367.553 257.503C366.229 257.486 365.005 257.71 363.88 258.176C362.755 258.641 361.782 259.302 360.962 260.159C360.142 261.015 359.503 262.044 359.046 263.245C358.589 264.434 358.361 265.756 358.361 267.209V267.912C358.361 269.189 358.589 270.393 359.046 271.524C359.515 272.644 360.177 273.619 361.032 274.451C361.888 275.294 362.913 275.964 364.108 276.46C365.304 276.956 366.634 277.214 368.098 277.233ZM367.518 261.458C368.139 261.466 368.684 261.573 369.153 261.778C369.633 261.972 370.038 262.235 370.366 262.567C370.694 262.911 370.952 263.313 371.139 263.773C371.326 264.232 371.42 264.72 371.42 265.235V265.622L363.405 265.517C363.522 264.898 363.698 264.337 363.933 263.836C364.167 263.336 364.46 262.906 364.811 262.547C365.151 262.188 365.55 261.918 366.007 261.737C366.464 261.543 366.967 261.45 367.518 261.458ZM392.758 271.983C392.758 272.276 392.682 272.545 392.53 272.789C392.389 273.033 392.172 273.247 391.879 273.431C391.575 273.614 391.182 273.762 390.702 273.872C390.233 273.972 389.682 274.017 389.05 274.009C388.522 274.002 388.007 273.943 387.503 273.831C387.011 273.719 386.571 273.543 386.185 273.304C385.798 273.076 385.482 272.779 385.235 272.412C384.989 272.034 384.849 271.587 384.814 271.071L380.156 271.01C380.156 271.783 380.343 272.559 380.718 273.337C381.105 274.104 381.667 274.791 382.406 275.399C383.144 276.018 384.058 276.522 385.148 276.911C386.249 277.3 387.515 277.505 388.944 277.523C390.245 277.54 391.422 277.415 392.477 277.148C393.532 276.868 394.434 276.476 395.184 275.97C395.922 275.464 396.49 274.862 396.889 274.164C397.299 273.455 397.504 272.678 397.504 271.835C397.504 270.92 397.299 270.133 396.889 269.471C396.49 268.798 395.934 268.222 395.219 267.744C394.504 267.278 393.655 266.892 392.67 266.586C391.686 266.28 390.62 266.026 389.471 265.823C388.675 265.696 388.018 265.552 387.503 265.393C386.987 265.222 386.583 265.035 386.29 264.832C385.985 264.641 385.774 264.427 385.657 264.191C385.54 263.944 385.482 263.679 385.482 263.398C385.482 263.117 385.546 262.854 385.675 262.609C385.815 262.353 386.015 262.133 386.272 261.949C386.554 261.742 386.917 261.583 387.362 261.471C387.807 261.36 388.329 261.308 388.927 261.316C389.63 261.325 390.227 261.421 390.719 261.603C391.223 261.786 391.622 262.025 391.915 262.322C392.125 262.547 392.284 262.801 392.389 263.084C392.495 263.355 392.547 263.649 392.547 263.965L397.434 264.029C397.434 263.15 397.24 262.333 396.854 261.578C396.467 260.823 395.91 260.165 395.184 259.605C394.446 259.056 393.549 258.623 392.495 258.304C391.44 257.974 390.251 257.8 388.927 257.783C387.661 257.766 386.524 257.91 385.517 258.213C384.509 258.516 383.654 258.933 382.95 259.462C382.247 259.992 381.708 260.612 381.333 261.322C380.958 262.032 380.771 262.78 380.771 263.565C380.771 264.373 380.953 265.091 381.316 265.716C381.691 266.342 382.206 266.894 382.863 267.371C383.519 267.86 384.304 268.281 385.218 268.633C386.144 268.973 387.163 269.262 388.276 269.499C389.155 269.674 389.882 269.848 390.456 270.02C391.03 270.191 391.493 270.373 391.844 270.565C392.184 270.769 392.418 270.983 392.547 271.207C392.688 271.432 392.758 271.69 392.758 271.983Z" fill="white" fill-opacity="0.9"/>
<g opacity="0.8" clip-path="url(#clip0_402_213)">
<path d="M445.041 636.03C445.041 636.03 445.307 630.501 450.76 631.144Z" fill="#3F3D56"/>
<path d="M443.5 630.769C445.008 630.769 446.23 629.557 446.23 628.062C446.23 626.566 445.008 625.354 443.5 625.354C441.993 625.354 440.771 626.566 440.771 628.062C440.771 629.557 441.993 630.769 443.5 630.769Z" fill="white"/>
<path d="M443.826 632.62H443.056V637.969H443.826V632.62Z" fill="#3F3D56"/>
<path d="M259.752 473.499C259.752 474.853 259.708 476.195 259.619 477.527C259.123 485.204 257.168 492.719 253.856 499.676C253.83 499.735 253.8 499.79 253.774 499.845C253.62 500.168 253.462 500.491 253.299 500.809C252.314 502.776 251.222 504.689 250.026 506.538C244.565 515.027 237.08 522.051 228.232 526.99C219.384 531.928 209.446 534.629 199.296 534.854L199.908 569.756L207.888 565.588L209.313 568.275L199.968 573.155L201.111 637.977L201.123 638.843L194.953 640.205L194.966 639.335L196.909 534.858C188.739 534.742 180.674 533.017 173.182 529.784C165.69 526.55 158.92 521.873 153.265 516.023C152.876 515.624 152.49 515.213 152.114 514.805C152.097 514.788 152.084 514.771 152.071 514.759C147.36 509.663 143.549 503.814 140.801 497.46C140.861 497.528 140.925 497.592 140.985 497.66C134.773 483.252 134.351 467.032 139.807 452.326C145.263 437.62 156.183 425.54 170.329 418.561C170.543 418.455 170.761 418.353 170.975 418.247C184.968 411.562 200.983 410.335 215.845 414.81C230.707 419.285 243.331 429.135 251.215 442.408C251.592 443.036 251.956 443.677 252.307 444.322C257.204 453.279 259.764 463.309 259.752 473.499Z" fill="#E5E5E5"/>
<path d="M251.423 499.879C296.213 499.879 332.523 463.865 332.523 419.439C332.523 375.014 296.213 339 251.423 339C206.632 339 170.322 375.014 170.322 419.439C170.322 463.865 206.632 499.879 251.423 499.879Z" fill="white"/>
<path opacity="0.2" d="M191.541 365.712C173.933 406.565 193.048 453.84 234.236 471.304C249.863 477.93 267.194 479.52 283.78 475.85C300.367 472.179 315.373 463.433 326.678 450.847C309.072 491.701 261.409 510.663 220.219 493.2C179.03 475.738 159.912 428.463 177.518 387.609C180.967 379.606 185.703 372.211 191.541 365.712V365.712Z" fill="black"/>
<path d="M255.811 643.529L247.527 641.224L247.544 640.341L250.026 506.538L250.15 499.867L250.155 499.672L250.587 476.296L251.216 442.412V442.408L251.644 419.44H251.87L252.307 444.322L252.876 476.708L253.282 499.689V499.858L253.299 500.805V500.809L254.087 545.604L254.168 550.056L255.794 642.637L255.811 643.529Z" fill="#3F3D56"/>
<path d="M264.544 540.142L251.138 547.143L253.006 550.663L266.412 543.662L264.544 540.142Z" fill="#3F3D56"/>
<path d="M249.834 659.722H211.593V660.571H249.834V659.722Z" fill="#CBCBCB"/>
<path d="M320.006 674.151H281.766V675H320.006V674.151Z" fill="#CBCBCB"/>
<path d="M429.116 663.117H390.875V663.966H429.116V663.117Z" fill="#CBCBCB"/>
<path d="M411.649 628.581V603.893C411.649 603.893 421.35 621.396 411.649 628.581Z" fill="#F1F1F1"/>
<path d="M412.249 628.577L393.913 611.881C393.913 611.881 413.473 616.63 412.249 628.577Z" fill="#F1F1F1"/>
<path d="M222.098 634.523V609.834C222.098 609.834 231.799 627.337 222.098 634.523Z" fill="#F1F1F1"/>
<path d="M222.697 634.518L204.361 617.822C204.361 617.822 223.921 622.571 222.697 634.518Z" fill="#F1F1F1"/>
<path d="M287.992 652.347V621.647C287.992 621.647 300.054 643.412 287.992 652.347Z" fill="#F1F1F1"/>
<path d="M288.737 652.342L265.936 631.58C265.936 631.58 290.259 637.486 288.737 652.342Z" fill="#F1F1F1"/>
<path d="M484 648.591L483.765 649.411L411.954 629.124L357.857 640.952L288.672 652.674L288.578 652.649L255.811 643.528L247.527 641.224L222.227 634.179L201.124 638.843L194.954 640.205L181.539 643.172L181.355 642.344L194.966 639.335L201.111 637.977L222.252 633.305L222.355 633.33L247.544 640.341L255.794 642.637L288.715 651.804L357.69 640.121L411.979 628.25L412.086 628.276L484 648.591Z" fill="#CBCBCB"/>
<path d="M355.525 390.537L361 386.194C356.747 385.729 354.999 388.029 354.284 389.85C350.961 388.482 347.344 390.275 347.344 390.275L358.298 394.219C357.745 392.755 356.784 391.478 355.525 390.537V390.537Z" fill="#3F3D56"/>
<path d="M154.421 388.839L159.896 384.496C155.643 384.031 153.895 386.332 153.18 388.153C149.857 386.784 146.24 388.578 146.24 388.578L157.194 392.522C156.641 391.058 155.679 389.781 154.421 388.839V388.839Z" fill="#3F3D56"/>
<path d="M343.544 471.596L349.019 467.253C344.766 466.788 343.019 469.089 342.303 470.91C338.981 469.541 335.364 471.335 335.364 471.335L346.318 475.279C345.765 473.815 344.803 472.537 343.544 471.596V471.596Z" fill="#3F3D56"/>
<path d="M306.364 658.39L310.548 659.932L318.535 644.658L312.36 642.382L306.364 658.39Z" fill="#FFB7B7"/>
<path d="M305.804 656.641L314.044 659.678L314.044 659.678C315.437 660.191 316.567 661.232 317.186 662.572C317.805 663.912 317.862 665.441 317.344 666.822L317.281 666.991L303.789 662.019L305.804 656.641Z" fill="#2F2E41"/>
<path d="M347.541 662.7L352.005 662.699L354.128 645.622L347.54 645.623L347.541 662.7Z" fill="#FFB7B7"/>
<path d="M346.767 661.254L355.557 661.254H355.558C357.043 661.254 358.468 661.839 359.519 662.881C360.569 663.923 361.16 665.336 361.16 666.81V666.991L346.767 666.991L346.767 661.254Z" fill="#2F2E41"/>
<path d="M327.105 544.264L328.561 541.375L340.94 547.514L340.576 550.042L342.943 553.112C342.943 553.112 346.948 555.279 346.22 562.501L345.492 569.362L344.581 578.21L350.953 600.058L354.23 628.948L356.597 652.241L345.128 651.699L334.569 613.781L316 654.588L303.257 651.338L320.733 610.892L322.918 593.919C322.918 593.919 321.462 584.891 328.379 578.752L327.287 575.502V571.497L323.646 552.39L327.105 544.264Z" fill="#2F2E41"/>
<path opacity="0.2" d="M326.764 585.555L326.353 585.671L334.363 613.838L334.774 613.723L326.764 585.555Z" fill="black"/>
<path d="M327.469 580.016H345.31V578.21H327.469V580.016Z" fill="#3F3D56"/>
<path d="M345.309 581.099C345.711 581.099 346.037 580.291 346.037 579.293C346.037 578.296 345.711 577.488 345.309 577.488C344.907 577.488 344.581 578.296 344.581 579.293C344.581 580.291 344.907 581.099 345.309 581.099Z" fill="#3F3D56"/>
<path d="M345.779 535.765C348.35 531.1 346.622 525.251 341.919 522.701C337.216 520.151 331.319 521.865 328.748 526.53C326.177 531.195 327.905 537.044 332.609 539.594C337.312 542.144 343.208 540.429 345.779 535.765Z" fill="#FFB7B7"/>
<path d="M322.413 527.711C327.155 527.711 330.999 523.898 330.999 519.195C330.999 514.492 327.155 510.679 322.413 510.679C317.671 510.679 313.827 514.492 313.827 519.195C313.827 523.898 317.671 527.711 322.413 527.711Z" fill="#2F2E41"/>
<path d="M311.518 518.283C311.179 519.411 311.08 520.597 311.226 521.765C311.373 522.934 311.762 524.059 312.37 525.07C312.977 526.082 313.789 526.958 314.755 527.642C315.721 528.326 316.819 528.805 317.98 529.047C319.142 529.289 320.342 529.29 321.503 529.049C322.665 528.808 323.764 528.331 324.731 527.648C325.697 526.965 326.51 526.09 327.119 525.079C327.727 524.068 328.118 522.943 328.266 521.775C327.651 523.824 326.282 525.568 324.43 526.662C322.578 527.756 320.38 528.118 318.27 527.679C316.161 527.239 314.296 526.029 313.045 524.288C311.794 522.548 311.249 520.404 311.518 518.283V518.283Z" fill="#2F2E41"/>
<path d="M345.436 528.475C345.688 530.676 345.201 532.898 344.051 534.797C342.9 536.696 341.15 538.165 339.072 538.978C336.994 539.79 334.704 539.9 332.557 539.29C330.409 538.681 328.525 537.386 327.195 535.606C325.865 533.826 325.164 531.661 325.2 529.446C325.237 527.231 326.009 525.09 327.397 523.354C328.784 521.618 330.711 520.385 332.877 519.845C335.043 519.306 337.329 519.49 339.379 520.369C341.074 519.013 343.176 519.433 344.885 520.865C346.818 522.483 347.392 523.595 348.89 526.256C347.417 526.462 346.91 528.27 345.436 528.475Z" fill="#2F2E41"/>
<path d="M309.762 557.423C309.871 560.276 310.086 565.891 310.086 566.178C310.086 566.48 314.378 575.294 316.232 579.087V579.089C316.364 579.356 316.482 579.599 316.587 579.812C316.73 580.107 316.956 580.354 317.237 580.525C317.517 580.696 317.842 580.784 318.171 580.778L326.274 580.634C326.72 580.626 327.145 580.448 327.461 580.137C327.777 579.826 327.96 579.406 327.971 578.964L328.875 543.606C328.878 543.489 328.858 543.373 328.815 543.264C328.772 543.156 328.707 543.057 328.625 542.973C328.543 542.89 328.445 542.823 328.337 542.778C328.229 542.733 328.112 542.709 327.995 542.709H317.545C317.104 542.709 316.671 542.833 316.297 543.066C315.923 543.298 315.623 543.631 315.431 544.025L310.416 554.316C309.945 555.284 309.721 556.35 309.762 557.423V557.423Z" fill="white"/>
<path d="M328.112 576.538C330.192 575.288 332.06 573.722 333.649 571.897C337.341 567.778 339.587 562.582 340.048 557.09C340.46 552.391 339.52 548.898 337.254 546.708C334.374 543.925 330.453 544.329 330.288 544.348L330.112 544.368L327.456 546.597L328.208 547.478L330.584 545.483C331.312 545.447 334.282 545.439 336.451 547.544C338.448 549.482 339.268 552.66 338.889 556.99C338.45 562.22 336.317 567.168 332.81 571.096C331.296 572.832 329.523 574.326 327.551 575.527L328.112 576.538Z" fill="white"/>
<path d="M313.034 563.104L312.956 563.481L327.114 566.365L327.192 565.989L313.034 563.104Z" fill="#3F3D56"/>
<path d="M322.366 542.701L321.446 565.046L321.834 565.062L322.753 542.717L322.366 542.701Z" fill="#3F3D56"/>
<path d="M309.762 557.423C309.871 560.276 310.086 565.891 310.086 566.178C310.086 566.48 314.378 575.294 316.232 579.087L312.776 559.183C312.642 558.418 312.306 557.701 311.801 557.106C311.297 556.512 310.642 556.061 309.904 555.8C309.788 556.333 309.74 556.878 309.762 557.423V557.423Z" fill="#3F3D56"/>
<path d="M330.996 599.136C330.69 598.745 330.474 598.292 330.364 597.809C330.253 597.327 330.251 596.826 330.357 596.342C330.463 595.858 330.674 595.403 330.977 595.009C331.279 594.615 331.665 594.292 332.107 594.062L331.404 586.355L336.022 584.789L336.86 595.687C337.2 596.449 337.247 597.308 336.991 598.102C336.736 598.896 336.195 599.57 335.473 599.995C334.75 600.42 333.895 600.567 333.07 600.409C332.245 600.251 331.507 599.798 330.996 599.136V599.136Z" fill="#FFB7B7"/>
<path d="M327.974 552.623C327.884 551.452 328.189 550.286 328.841 549.306C329.494 548.327 330.457 547.591 331.577 547.215C332.566 546.891 333.633 546.892 334.621 547.218C335.678 547.575 336.595 548.252 337.242 549.155C337.89 550.057 338.235 551.138 338.229 552.246L338.575 591.385L330.393 591.679L327.974 552.623Z" fill="#CBCBCB"/>
</g>
<defs>
<filter id="filter0_d_402_213" x="55.7092" y="42.1254" width="555.636" height="817.767" filterUnits="userSpaceOnUse" color-interpolation-filters="sRGB">
<feFlood flood-opacity="0" result="BackgroundImageFix"/>
<feColorMatrix in="SourceAlpha" type="matrix" values="0 0 0 0 0 0 0 0 0 0 0 0 0 0 0 0 0 0 127 0" result="hardAlpha"/>
<feOffset dx="1.52709"/>
<feGaussianBlur stdDeviation="1.52709"/>
<feComposite in2="hardAlpha" operator="out"/>
<feColorMatrix type="matrix" values="0 0 0 0 0 0 0 0 0 0 0 0 0 0 0 0 0 0 0.1 0"/>
<feBlend mode="normal" in2="BackgroundImageFix" result="effect1_dropShadow_402_213"/>
<feBlend mode="normal" in="SourceGraphic" in2="effect1_dropShadow_402_213" result="shape"/>
</filter>
<filter id="filter1_d_402_213" x="53.7092" y="40.125" width="554.636" height="820.768" filterUnits="userSpaceOnUse" color-interpolation-filters="sRGB">
<feFlood flood-opacity="0" result="BackgroundImageFix"/>
<feColorMatrix in="SourceAlpha" type="matrix" values="0 0 0 0 0 0 0 0 0 0 0 0 0 0 0 0 0 0 127 0" result="hardAlpha"/>
<feOffset dx="1.52709"/>
<feGaussianBlur stdDeviation="1.52709"/>
<feComposite in2="hardAlpha" operator="out"/>
<feColorMatrix type="matrix" values="0 0 0 0 0 0 0 0 0 0 0 0 0 0 0 0 0 0 0.1 0"/>
<feBlend mode="normal" in2="BackgroundImageFix" result="effect1_dropShadow_402_213"/>
<feBlend mode="normal" in="SourceGraphic" in2="effect1_dropShadow_402_213" result="shape"/>
</filter>
<filter id="filter2_d_402_213" x="50.7092" y="39.1248" width="554.636" height="823.768" filterUnits="userSpaceOnUse" color-interpolation-filters="sRGB">
<feFlood flood-opacity="0" result="BackgroundImageFix"/>
<feColorMatrix in="SourceAlpha" type="matrix" values="0 0 0 0 0 0 0 0 0 0 0 0 0 0 0 0 0 0 127 0" result="hardAlpha"/>
<feOffset dx="1.52709"/>
<feGaussianBlur stdDeviation="1.52709"/>
<feComposite in2="hardAlpha" operator="out"/>
<feColorMatrix type="matrix" values="0 0 0 0 0 0 0 0 0 0 0 0 0 0 0 0 0 0 0.1 0"/>
<feBlend mode="normal" in2="BackgroundImageFix" result="effect1_dropShadow_402_213"/>
<feBlend mode="normal" in="SourceGraphic" in2="effect1_dropShadow_402_213" result="shape"/>
</filter>
<filter id="filter3_d_402_213" x="47.7092" y="37.1245" width="554.636" height="826.769" filterUnits="userSpaceOnUse" color-interpolation-filters="sRGB">
<feFlood flood-opacity="0" result="BackgroundImageFix"/>
<feColorMatrix in="SourceAlpha" type="matrix" values="0 0 0 0 0 0 0 0 0 0 0 0 0 0 0 0 0 0 127 0" result="hardAlpha"/>
<feOffset dx="1.52709"/>
<feGaussianBlur stdDeviation="1.52709"/>
<feComposite in2="hardAlpha" operator="out"/>
<feColorMatrix type="matrix" values="0 0 0 0 0 0 0 0 0 0 0 0 0 0 0 0 0 0 0.1 0"/>
<feBlend mode="normal" in2="BackgroundImageFix" result="effect1_dropShadow_402_213"/>
<feBlend mode="normal" in="SourceGraphic" in2="effect1_dropShadow_402_213" result="shape"/>
</filter>
<filter id="filter4_d_402_213" x="44.7092" y="36.1244" width="554.636" height="829.769" filterUnits="userSpaceOnUse" color-interpolation-filters="sRGB">
<feFlood flood-opacity="0" result="BackgroundImageFix"/>
<feColorMatrix in="SourceAlpha" type="matrix" values="0 0 0 0 0 0 0 0 0 0 0 0 0 0 0 0 0 0 127 0" result="hardAlpha"/>
<feOffset dx="1.52709"/>
<feGaussianBlur stdDeviation="1.52709"/>
<feComposite in2="hardAlpha" operator="out"/>
<feColorMatrix type="matrix" values="0 0 0 0 0 0 0 0 0 0 0 0 0 0 0 0 0 0 0.1 0"/>
<feBlend mode="normal" in2="BackgroundImageFix" result="effect1_dropShadow_402_213"/>
<feBlend mode="normal" in="SourceGraphic" in2="effect1_dropShadow_402_213" result="shape"/>
</filter>
<filter id="filter5_d_402_213" x="44.7092" y="34.1237" width="551.636" height="834.771" filterUnits="userSpaceOnUse" color-interpolation-filters="sRGB">
<feFlood flood-opacity="0" result="BackgroundImageFix"/>
<feColorMatrix in="SourceAlpha" type="matrix" values="0 0 0 0 0 0 0 0 0 0 0 0 0 0 0 0 0 0 127 0" result="hardAlpha"/>
<feOffset dx="1.52709"/>
<feGaussianBlur stdDeviation="1.52709"/>
<feComposite in2="hardAlpha" operator="out"/>
<feColorMatrix type="matrix" values="0 0 0 0 0 0 0 0 0 0 0 0 0 0 0 0 0 0 0.1 0"/>
<feBlend mode="normal" in2="BackgroundImageFix" result="effect1_dropShadow_402_213"/>
<feBlend mode="normal" in="SourceGraphic" in2="effect1_dropShadow_402_213" result="shape"/>
</filter>
<filter id="filter6_d_402_213" x="41.7092" y="33.1233" width="551.636" height="838.771" filterUnits="userSpaceOnUse" color-interpolation-filters="sRGB">
<feFlood flood-opacity="0" result="BackgroundImageFix"/>
<feColorMatrix in="SourceAlpha" type="matrix" values="0 0 0 0 0 0 0 0 0 0 0 0 0 0 0 0 0 0 127 0" result="hardAlpha"/>
<feOffset dx="1.52709"/>
<feGaussianBlur stdDeviation="1.52709"/>
<feComposite in2="hardAlpha" operator="out"/>
<feColorMatrix type="matrix" values="0 0 0 0 0 0 0 0 0 0 0 0 0 0 0 0 0 0 0.1 0"/>
<feBlend mode="normal" in2="BackgroundImageFix" result="effect1_dropShadow_402_213"/>
<feBlend mode="normal" in="SourceGraphic" in2="effect1_dropShadow_402_213" result="shape"/>
</filter>
<filter id="filter7_d_402_213" x="38.7092" y="30.1229" width="551.636" height="844.772" filterUnits="userSpaceOnUse" color-interpolation-filters="sRGB">
<feFlood flood-opacity="0" result="BackgroundImageFix"/>
<feColorMatrix in="SourceAlpha" type="matrix" values="0 0 0 0 0 0 0 0 0 0 0 0 0 0 0 0 0 0 127 0" result="hardAlpha"/>
<feOffset dx="1.52709"/>
<feGaussianBlur stdDeviation="1.52709"/>
<feComposite in2="hardAlpha" operator="out"/>
<feColorMatrix type="matrix" values="0 0 0 0 0 0 0 0 0 0 0 0 0 0 0 0 0 0 0.1 0"/>
<feBlend mode="normal" in2="BackgroundImageFix" result="effect1_dropShadow_402_213"/>
<feBlend mode="normal" in="SourceGraphic" in2="effect1_dropShadow_402_213" result="shape"/>
</filter>
<filter id="filter8_d_402_213" x="35.7092" y="28.1226" width="551.636" height="849.773" filterUnits="userSpaceOnUse" color-interpolation-filters="sRGB">
<feFlood flood-opacity="0" result="BackgroundImageFix"/>
<feColorMatrix in="SourceAlpha" type="matrix" values="0 0 0 0 0 0 0 0 0 0 0 0 0 0 0 0 0 0 127 0" result="hardAlpha"/>
<feOffset dx="1.52709"/>
<feGaussianBlur stdDeviation="1.52709"/>
<feComposite in2="hardAlpha" operator="out"/>
<feColorMatrix type="matrix" values="0 0 0 0 0 0 0 0 0 0 0 0 0 0 0 0 0 0 0.1 0"/>
<feBlend mode="normal" in2="BackgroundImageFix" result="effect1_dropShadow_402_213"/>
<feBlend mode="normal" in="SourceGraphic" in2="effect1_dropShadow_402_213" result="shape"/>
</filter>
<filter id="filter9_d_402_213" x="32.7092" y="25.122" width="551.636" height="857.775" filterUnits="userSpaceOnUse" color-interpolation-filters="sRGB">
<feFlood flood-opacity="0" result="BackgroundImageFix"/>
<feColorMatrix in="SourceAlpha" type="matrix" values="0 0 0 0 0 0 0 0 0 0 0 0 0 0 0 0 0 0 127 0" result="hardAlpha"/>
<feOffset dx="1.52709"/>
<feGaussianBlur stdDeviation="1.52709"/>
<feComposite in2="hardAlpha" operator="out"/>
<feColorMatrix type="matrix" values="0 0 0 0 0 0 0 0 0 0 0 0 0 0 0 0 0 0 0.1 0"/>
<feBlend mode="normal" in2="BackgroundImageFix" result="effect1_dropShadow_402_213"/>
<feBlend mode="normal" in="SourceGraphic" in2="effect1_dropShadow_402_213" result="shape"/>
</filter>
<filter id="filter10_d_402_213" x="29.7092" y="22.1215" width="551.636" height="863.776" filterUnits="userSpaceOnUse" color-interpolation-filters="sRGB">
<feFlood flood-opacity="0" result="BackgroundImageFix"/>
<feColorMatrix in="SourceAlpha" type="matrix" values="0 0 0 0 0 0 0 0 0 0 0 0 0 0 0 0 0 0 127 0" result="hardAlpha"/>
<feOffset dx="1.52709"/>
<feGaussianBlur stdDeviation="1.52709"/>
<feComposite in2="hardAlpha" operator="out"/>
<feColorMatrix type="matrix" values="0 0 0 0 0 0 0 0 0 0 0 0 0 0 0 0 0 0 0.1 0"/>
<feBlend mode="normal" in2="BackgroundImageFix" result="effect1_dropShadow_402_213"/>
<feBlend mode="normal" in="SourceGraphic" in2="effect1_dropShadow_402_213" result="shape"/>
</filter>
<filter id="filter11_d_402_213" x="26.7092" y="19.121" width="551.636" height="870.777" filterUnits="userSpaceOnUse" color-interpolation-filters="sRGB">
<feFlood flood-opacity="0" result="BackgroundImageFix"/>
<feColorMatrix in="SourceAlpha" type="matrix" values="0 0 0 0 0 0 0 0 0 0 0 0 0 0 0 0 0 0 127 0" result="hardAlpha"/>
<feOffset dx="1.52709"/>
<feGaussianBlur stdDeviation="1.52709"/>
<feComposite in2="hardAlpha" operator="out"/>
<feColorMatrix type="matrix" values="0 0 0 0 0 0 0 0 0 0 0 0 0 0 0 0 0 0 0.1 0"/>
<feBlend mode="normal" in2="BackgroundImageFix" result="effect1_dropShadow_402_213"/>
<feBlend mode="normal" in="SourceGraphic" in2="effect1_dropShadow_402_213" result="shape"/>
</filter>
<filter id="filter12_d_402_213" x="23.7092" y="16.1206" width="551.636" height="876.778" filterUnits="userSpaceOnUse" color-interpolation-filters="sRGB">
<feFlood flood-opacity="0" result="BackgroundImageFix"/>
<feColorMatrix in="SourceAlpha" type="matrix" values="0 0 0 0 0 0 0 0 0 0 0 0 0 0 0 0 0 0 127 0" result="hardAlpha"/>
<feOffset dx="1.52709"/>
<feGaussianBlur stdDeviation="1.52709"/>
<feComposite in2="hardAlpha" operator="out"/>
<feColorMatrix type="matrix" values="0 0 0 0 0 0 0 0 0 0 0 0 0 0 0 0 0 0 0.1 0"/>
<feBlend mode="normal" in2="BackgroundImageFix" result="effect1_dropShadow_402_213"/>
<feBlend mode="normal" in="SourceGraphic" in2="effect1_dropShadow_402_213" result="shape"/>
</filter>
<linearGradient id="paint0_linear_402_213" x1="619.867" y1="27.5426" x2="109.725" y2="933.451" gradientUnits="userSpaceOnUse">
<stop stop-color="#B388FF" stop-opacity="0.5"/>
<stop offset="1" stop-color="#673AB7"/>
<stop offset="1" stop-color="#5C00FF"/>
</linearGradient>
<linearGradient id="paint1_linear_402_213" x1="615.287" y1="459.226" x2="619.649" y2="459.226" gradientUnits="userSpaceOnUse">
<stop stop-color="#C78283"/>
<stop offset="1" stop-color="#C78283"/>
</linearGradient>
<linearGradient id="paint2_linear_402_213" x1="617.904" y1="28.6804" x2="632.377" y2="28.9217" gradientUnits="userSpaceOnUse">
<stop stop-color="#AC7DFF" stop-opacity="0"/>
<stop offset="1" stop-color="#562D9D" stop-opacity="0.65"/>
</linearGradient>
<linearGradient id="paint3_linear_402_213" x1="571" y1="-0.763232" x2="1.20008" y2="938.731" gradientUnits="userSpaceOnUse">
<stop stop-color="#C78283" stop-opacity="0.5"/>
<stop offset="1" stop-color="#673AB7"/>
<stop offset="1" stop-color="#C78283"/>
</linearGradient>
<linearGradient id="paint4_linear_402_213" x1="560.443" y1="464.103" x2="570.92" y2="464.103" gradientUnits="userSpaceOnUse">
<stop stop-color="#C78283"/>
<stop offset="1" stop-color="#C78283"/>
</linearGradient>
<linearGradient id="paint5_linear_402_213" x1="566.729" y1="0.763674" x2="601.448" y2="2.05548" gradientUnits="userSpaceOnUse">
<stop stop-color="#AC7DFF" stop-opacity="0"/>
<stop offset="1" stop-color="#562D9D" stop-opacity="0.65"/>
</linearGradient>
<clipPath id="clip0_402_213">
<rect width="348" height="336" fill="white" transform="translate(136 339)"/>
</clipPath>
</defs>
</svg>
