<svg width="81" height="43" viewBox="0 0 81 43" fill="none" xmlns="http://www.w3.org/2000/svg">
<path d="M13.632 21.96C13.632 21.8533 13.6853 21.8 13.792 21.8H14.592C14.6987 21.8 14.752 21.8533 14.752 21.96V32.84C14.752 32.9467 14.6987 33 14.592 33H13.648C13.5627 33 13.504 32.9573 13.472 32.872L10.352 24.6C10.3413 24.568 10.3253 24.5573 10.304 24.568C10.2827 24.568 10.272 24.584 10.272 24.616L10.288 32.84C10.288 32.9467 10.2347 33 10.128 33H9.312C9.20533 33 9.152 32.9467 9.152 32.84V21.96C9.152 21.8533 9.20533 21.8 9.312 21.8H10.24C10.3253 21.8 10.384 21.8427 10.416 21.928L13.552 30.216C13.5627 30.248 13.5787 30.264 13.6 30.264C13.6213 30.2533 13.632 30.232 13.632 30.2V21.96ZM22.2226 33.128C21.4013 33.128 20.7346 32.872 20.2226 32.36C19.7213 31.848 19.4706 31.1707 19.4706 30.328V24.472C19.4706 23.6293 19.7213 22.952 20.2226 22.44C20.7346 21.928 21.4013 21.672 22.2226 21.672C23.0546 21.672 23.7266 21.928 24.2386 22.44C24.7506 22.952 25.0066 23.6293 25.0066 24.472V30.328C25.0066 31.16 24.7506 31.8373 24.2386 32.36C23.7266 32.872 23.0546 33.128 22.2226 33.128ZM22.2226 32.136C22.7133 32.136 23.108 31.976 23.4066 31.656C23.716 31.3253 23.8706 30.904 23.8706 30.392V24.424C23.8706 23.9013 23.716 23.48 23.4066 23.16C23.108 22.8293 22.7133 22.664 22.2226 22.664C21.7426 22.664 21.3533 22.8293 21.0546 23.16C20.756 23.48 20.6066 23.9013 20.6066 24.424V30.392C20.6066 30.904 20.756 31.3253 21.0546 31.656C21.3533 31.976 21.7426 32.136 22.2226 32.136ZM31.5966 33C31.5006 33 31.442 32.952 31.4206 32.856L29.1006 21.976V21.944C29.1006 21.848 29.1486 21.8 29.2446 21.8H30.1406C30.2473 21.8 30.306 21.848 30.3166 21.944L32.0446 30.888C32.0553 30.9093 32.066 30.92 32.0766 30.92C32.0873 30.92 32.098 30.9093 32.1086 30.888L33.8206 21.944C33.842 21.848 33.9006 21.8 33.9966 21.8H34.8606C34.978 21.8 35.026 21.8587 35.0046 21.976L32.6846 32.856C32.674 32.952 32.6153 33 32.5086 33H31.5966ZM56.1101 21.912C56.1421 21.8373 56.2061 21.8 56.3021 21.8H57.1341C57.2408 21.8 57.2941 21.8533 57.2941 21.96V32.84C57.2941 32.9467 57.2408 33 57.1341 33H56.3181C56.2115 33 56.1581 32.9467 56.1581 32.84V24.264C56.1581 24.232 56.1475 24.216 56.1261 24.216C56.1155 24.216 56.0995 24.2267 56.0781 24.248L54.4141 27.704C54.3821 27.7787 54.3288 27.816 54.2541 27.816C54.1688 27.816 54.1101 27.7787 54.0781 27.704L52.4141 24.264C52.3928 24.2427 52.3715 24.232 52.3501 24.232C52.3395 24.232 52.3341 24.248 52.3341 24.28V32.84C52.3341 32.9467 52.2808 33 52.1741 33H51.3581C51.2515 33 51.1981 32.9467 51.1981 32.84V21.96C51.1981 21.8533 51.2515 21.8 51.3581 21.8H52.1901C52.2861 21.8 52.3501 21.8373 52.3821 21.912L54.2061 25.608C54.2168 25.6293 54.2328 25.64 54.2541 25.64C54.2755 25.64 54.2915 25.6293 54.3021 25.608L56.1101 21.912ZM67.3459 22.632C67.3459 22.7387 67.2925 22.792 67.1859 22.792H63.4739C63.4312 22.792 63.4099 22.8133 63.4099 22.856V26.824C63.4099 26.8667 63.4312 26.888 63.4739 26.888H65.8099C65.9165 26.888 65.9699 26.9413 65.9699 27.048V27.736C65.9699 27.8427 65.9165 27.896 65.8099 27.896H63.4739C63.4312 27.896 63.4099 27.9173 63.4099 27.96V31.944C63.4099 31.9867 63.4312 32.008 63.4739 32.008H67.1859C67.2925 32.008 67.3459 32.0613 67.3459 32.168V32.84C67.3459 32.9467 67.2925 33 67.1859 33H62.4339C62.3272 33 62.2739 32.9467 62.2739 32.84V21.96C62.2739 21.8533 62.3272 21.8 62.4339 21.8H67.1859C67.2925 21.8 67.3459 21.8533 67.3459 21.96V22.632Z" fill="white"/>
<path d="M48.88 5.44C48.88 3.99722 48.3069 2.61353 47.2867 1.59334C46.2665 0.57314 44.8828 0 43.44 0C41.9972 0 40.6135 0.57314 39.5933 1.59334C38.5731 2.61353 38 3.99722 38 5.44V21.89L42.48 25.1V32.92H44.4V25.1L48.88 21.89V5.44ZM46.96 14.64L44.4 17.2V14.8L46.96 12.24V14.64ZM39.96 12.24L42.52 14.8V17.2L39.96 14.64V12.24ZM46.96 9.52L43.44 13.04L39.92 9.44V7.04L43.44 10.56L46.96 7.04V9.52ZM43.44 1.92C44.2141 1.92342 44.9658 2.18053 45.5799 2.65193C46.194 3.12333 46.6366 3.78303 46.84 4.53L43.44 7.92L40.04 4.53C40.2359 3.7756 40.6754 3.10695 41.2901 2.62781C41.9049 2.14866 42.6606 1.88579 43.44 1.87999V1.92ZM39.92 20.92V17.32L42.48 19.88V22.74L39.92 20.92ZM44.4 22.75V19.88L46.96 17.32V20.91L44.4 22.75Z" fill="white"/>
<g filter="url(#filter0_f_10_440)">
<path d="M5 38C5.22832 36.7142 5.81339 35.8214 6.37293 34.6639C6.71708 33.952 6.78096 33.1981 7.13567 32.49C7.71141 31.3405 8.54312 30.8326 9.60912 30.0656C10.2454 29.6077 10.868 29.0136 11.6685 28.8033C13.2861 28.3784 14.5617 27.3977 16.3321 27.3607C18.3756 27.318 20.3406 27 22.4122 27C24.771 27 27.4124 26.7898 29.7127 27.2705C31.156 27.5721 32.6749 27.2546 34.1257 27.551C37.3487 28.2095 40.6948 28.082 44.0304 28.082C47.4964 28.082 50.9801 28.2623 54.4254 28.2623C55.7734 28.2623 58.5131 28.7134 59.8082 28.1721C61.2138 27.5847 62.7211 27.2167 64.134 26.6393C64.7905 26.3711 65.3953 25.9128 66.0299 25.6576C67.1048 25.2252 68.2528 24.9713 69.3315 24.4754C69.7787 24.2698 71.2684 23.8484 71.4889 23.4936C71.6728 23.1978 72.213 22.6988 72.5132 22.4918C73.224 22.0017 73.3936 21.1428 74.0278 20.6084C74.6222 20.1074 75.0275 19.3659 75.368 18.7049C75.7672 17.93 76 16.8529 76 16" stroke="white" stroke-width="2" stroke-linecap="round"/>
</g>
<defs>
<filter id="filter0_f_10_440" x="-0.000244141" y="11" width="81.0002" height="32.0002" filterUnits="userSpaceOnUse" color-interpolation-filters="sRGB">
<feFlood flood-opacity="0" result="BackgroundImageFix"/>
<feBlend mode="normal" in="SourceGraphic" in2="BackgroundImageFix" result="shape"/>
<feGaussianBlur stdDeviation="2" result="effect1_foregroundBlur_10_440"/>
</filter>
</defs>
</svg>
